PathFileType	3	(X/Y/Z)	D:\minhoCalibration\240510\subject5_KPNP\preferred\preferred04.trc
DataRate	CameraRate	NumFrames	NumMarkers	Units	OrigDataRate	OrigDataStartFrame	OrigNumFrames
200.0	200.0	15	10	mm	200.0	260	201	
Frame#	Time	Left_Ankle_Outer1			Left_Ankle_Inner1			Left_Knee_Outer1			Left_Knee_Inner1			Left_Wrist1			Right_Wrist1			Right_Knee_Inner1			Right_Knee_Outer1			Right_Ankle_Inner1			Right_Ankle_Outer1			
		X1	Y1	Z1	X2	Y2	Z2	X3	Y3	Z3	X4	Y4	Z4	X5	Y5	Z5	X6	Y6	Z6	X7	Y7	Z7	X8	Y8	Z8	X9	Y9	Z9	X10	Y10	Z10	
260	1.29	-624.17725	77.114517	-526.81305	-651.3866	85.517334	-481.95264	-450.62421	522.09833	-477.51105	-499.91843	509.20242	-397.71732	-512.43359	957.2879	-652.35944	-641.75378	1178.9984	-441.89124	-480.0256	998.17896	-18.348295	-541.05701	1063.1073	-19.809622	-393.60522	896.03107	399.49539	-485.1438	925.14789	416.77737
261	1.295	-623.70392	77.174042	-527.18152	-651.07184	85.657257	-482.56036	-451.76334	522.24353	-477.73807	-500.77594	509.58926	-398.81946	-510.36115	959.58344	-651.12695	-645.22333	1176.9225	-440.2366	-484.16733	994.48041	-18.283922	-546.58478	1057.8369	-18.628271	-398.99017	885.57208	398.24603	-491.48563	912.23822	415.42395
262	1.3	-623.18829	77.313751	-527.74243	-651.40442	85.947525	-482.53168	-451.37811	523.06525	-479.37247	-501.3696	510.16199	-400.12436	-508.01157	962.17242	-649.86292	-649.0697	1174.8171	-438.41733	-488.28491	990.69385	-18.351286	-552.4137	1052.3665	-17.439997	-405.18326	874.38483	396.94354	-498.41156	898.70288	413.79776
263	1.305	-622.85809	77.156471	-528.19342	-651.06866	86.129227	-483.09921	-451.58994	523.5401	-480.71371	-501.4801	510.94574	-401.95117	-505.44934	964.86646	-648.58618	-653.2265	1172.7811	-436.51562	-492.31631	986.65753	-18.575506	-558.02142	1046.7164	-16.761948	-411.87134	862.42456	395.30261	-505.91214	884.5946	411.6871
264	1.31	-622.43878	77.046768	-528.90961	-650.71136	86.222794	-483.92142	-451.53769	524.02454	-482.54153	-502.15585	511.14618	-403.73218	-503.21448	967.15448	-646.88898	-657.49036	1170.7992	-435.12488	-496.32266	982.29584	-18.938141	-562.94598	1040.8605	-16.741905	-419.13736	849.52545	393.30045	-513.63098	869.92572	408.97281
265	1.315	-621.89355	76.930733	-529.57031	-650.32098	86.144279	-484.88156	-451.72058	524.26947	-484.56522	-502.02893	511.52402	-406.02374	-500.86813	969.24976	-645.15979	-661.35858	1169.036	-434.72562	-500.2449	977.65399	-19.411222	-567.91821	1034.8894	-16.858511	-426.87051	836.03802	390.897	-521.61389	854.79633	405.93152
266	1.32	-621.57739	76.811295	-530.21881	-649.92548	86.24585	-485.59616	-451.81693	524.54285	-486.93112	-501.81622	511.73819	-408.51465	-497.54749	971.57166	-643.96796	-664.86188	1167.6052	-434.76865	-504.1828	972.73224	-19.8634	-573.05505	1028.7263	-17.024317	-434.83047	821.6037	388.09711	-529.59766	839.02515	402.01852
267	1.325	-621.28326	76.62735	-530.76245	-649.60376	86.408112	-485.93561	-451.92746	524.8609	-489.5936	-501.49973	511.8497	-411.09857	-494.68478	973.5354	-642.09875	-668.08759	1166.6385	-435.41864	-507.80939	967.73706	-20.53931	-578.02539	1022.6973	-17.181664	-443.26517	806.57257	384.86584	-538.1806	823.05402	397.86411
268	1.33	-620.98315	76.573746	-531.33655	-649.35712	86.359108	-486.39407	-452.12424	525.10962	-492.33047	-501.55701	511.9003	-413.41983	-491.63107	975.33673	-640.0274	-670.79218	1165.8705	-437.72159	-511.1181	962.64459	-21.318581	-582.36017	1016.5393	-17.779484	-452.01541	790.9516	381.23978	-547.28644	806.83466	393.34375
269	1.335	-620.81677	76.430374	-531.91583	-649.36328	86.220459	-487.24799	-452.77039	525.17944	-495.06921	-501.06467	511.80429	-415.70789	-488.56058	977.05286	-637.81873	-673.47577	1165.8983	-439.21625	-514.33679	957.45868	-22.083029	-586.31659	1010.4905	-18.478184	-461.65149	774.83673	376.53162	-556.61139	790.35944	388.26016
270	1.34	-620.68677	76.248215	-532.35754	-648.1911	86.432274	-488.06491	-453.65344	525.44556	-497.59396	-501.07681	511.93268	-417.74054	-485.37845	978.8233	-635.57288	-676.08899	1166.4789	-439.98718	-517.74951	952.13287	-22.872934	-590.36005	1004.1988	-19.09996	-471.17249	758.13068	371.76056	-566.38684	774.00488	382.77408
271	1.345	-620.61127	76.015274	-532.7298	-647.96783	86.439484	-488.53104	-454.68121	525.61865	-499.83435	-501.39813	512.03113	-419.45825	-482.48364	980.30194	-633.2782	-678.69366	1166.4644	-441.19418	-521.09033	946.46722	-23.742016	-594.09375	998.02246	-19.865942	-481.04108	741.02393	366.47928	-576.13715	757.30695	376.51724
272	1.35	-620.58942	75.845421	-532.88202	-648.53107	86.045189	-488.75861	-455.81458	525.91315	-501.64981	-502.1124	512.22681	-420.90814	-479.85168	981.48798	-631.04883	-680.98499	1166.1515	-442.42294	-524.25818	940.62482	-24.729689	-597.64825	991.86591	-20.69573	-491.366	723.55884	360.41949	-586.58911	740.73987	370.07669
273	1.355	-620.56561	75.84584	-533.09283	-647.60492	86.190979	-489.34134	-457.12073	526.12451	-502.92517	-503.26859	512.52325	-422.00409	-477.32202	982.67023	-629.02319	-682.97784	1165.42	-443.75293	-527.96613	934.37476	-25.716742	-601.04047	985.51526	-21.551785	-501.97665	705.81897	353.85587	-596.41132	723.57739	362.52344
274	1.36	-620.73871	75.764648	-533.09198	-648.48871	86.446106	-488.11264	-458.35361	526.34906	-503.74042	-504.78888	512.8233	-422.92474	-474.88937	983.95782	-627.22662	-684.698	1163.7083	-446.03204	-531.12897	927.76648	-26.883682	-604.40723	979.16052	-22.536839	-512.41602	688.88245	346.94113	-607.50592	707.01727	355.0441
